<?xml version="1.0" encoding="utf-8"?>
<!-- Generator: Adobe Illustrator 21.0.0, SVG Export Plug-In . SVG Version: 6.00 Build 0)  -->
<svg version="1.1" id="Layer_1" xmlns="http://www.w3.org/2000/svg" xmlns:xlink="http://www.w3.org/1999/xlink" x="0px" y="0px"
	 viewBox="0 0 700 100" style="enable-background:new 0 0 700 100;" xml:space="preserve">
<style type="text/css">
	.st0{fill:none;}
	.st1{fill:#DE8D2A;}
	.st2{fill:#F4F4F4;}
	.st3{fill:#DD4E4E;}
	.st4{fill:#FA7564;}
	.st5{fill:#DBDBDB;}
	.st6{fill:#FCC153;}
	.st7{fill:#20262D;}
	.st8{fill:#4C4C4C;}
	.st9{fill:#F7F7F7;}
	.st10{fill:#DDDDDD;}
	.st11{fill:#4A5054;}
	.st12{fill:#71CFF4;}
	.st13{fill:#4EB3E6;}
	.st14{opacity:0.2;fill:#E0E0E0;enable-background:new    ;}
	.st15{fill:#3C5A99;}
	.st16{fill:#FFFFFF;}
	.st17{fill:#0778B6;}
	.st18{fill:#BD081C;}
	.st19{fill:url(#path4931_1_);}
	.st20{fill:#3D3D3D;}
	.st21{fill:#515252;}
	.st22{fill:url(#SVGID_1_);}
</style>
<g>
	<g>
		<rect class="st0" width="100" height="100"/>
	</g>
	<g>
		<rect x="100" class="st0" width="100" height="100"/>
	</g>
	<g>
		<rect x="200" class="st0" width="100" height="100"/>
	</g>
	<g>
		<rect x="300" class="st0" width="100" height="100"/>
	</g>
	<g>
		<rect x="400" class="st0" width="100" height="100"/>
	</g>
	<g>
		<rect x="500" class="st0" width="100" height="100"/>
	</g>
	<g>
		<rect x="600" class="st0" width="100" height="100"/>
	</g>
	<g>
		<polygon class="st1" points="150,25 123.3,41.7 150,58.3 176.7,41.7 		"/>
		<polygon class="st2" points="164.4,27.1 126.8,27.1 126.8,60.3 172.5,60.3 172.5,35.1 		"/>
		<path class="st3" d="M150,45.9c-0.6,0-1.2,0.3-1.6,0.8c-0.4,0.6-0.7,1.4-0.6,2.2c0,0.7,0.2,1.3,0.5,1.9c0.3,0.5,0.7,0.7,1.2,0.7
			c0.7,0,1.4-0.4,1.8-1c0.5-0.7,0.8-1.6,0.8-2.5c0-0.5-0.3-1.1-0.6-1.4C151.1,46.2,150.6,45.9,150,45.9z"/>
		<path class="st3" d="M150,34c-8,0-14.5,6.5-14.5,14.5S142,63,150,63s14.5-6.5,14.5-14.5l0,0C164.5,40.5,158,34,150,34z
			 M157.3,51.7c-0.7,1.1-2,1.8-3.3,1.8c-0.9,0.1-1.7-0.4-2.1-1.3c-0.6,0.8-1.5,1.3-2.5,1.3c-1,0-2-0.5-2.7-1.3
			c-0.8-0.9-1.1-2.1-1.1-3.3c-0.1-1.3,0.4-2.6,1.2-3.5c0.7-0.9,1.8-1.4,3-1.4c0.9-0.1,1.8,0.3,2.4,1v-0.2c0-0.4,0.4-0.7,0.8-0.7h0.8
			c0.3,0,0.5,0.3,0.5,0.6c0,0,0,0,0,0l-0.6,5c0,0.4,0,0.8,0,1.1c0,0.5,0.2,0.8,0.6,0.8s1.2-0.4,1.8-1.3c0.6-0.9,0.9-2,0.9-3.1
			c0.1-1.7-0.7-3.3-1.9-4.3c-1.3-1.1-2.9-1.7-4.6-1.7c-1.9,0-3.7,0.7-5,2c-1.3,1.3-2.1,3.1-2,5c-0.1,3.8,2.9,6.9,6.6,6.9
			c0.2,0,0.4,0,0.6,0c1.5,0,2.9-0.3,4.3-0.9l0.5-0.2c0.2-0.1,0.4-0.1,0.6,0c0.2,0.1,0.3,0.2,0.4,0.4l0.1,0.3c0.2,0.4,0,0.8-0.4,1
			l-0.6,0.2c-1.6,0.6-3.3,1-5,1c-2.5,0.1-5-0.8-6.8-2.6c-1.6-1.6-2.5-3.8-2.5-6.1c-0.1-2.4,0.9-4.6,2.6-6.2c1.7-1.6,4-2.5,6.4-2.5
			c2.2-0.1,4.3,0.7,5.9,2.2c1.6,1.4,2.4,3.4,2.4,5.4C158.7,48.9,158.2,50.4,157.3,51.7z"/>
		<polygon class="st4" points="164.4,27.1 164.4,35.1 172.5,35.1 		"/>
		<polygon class="st5" points="150,55.4 123.3,41.7 123.3,75 176.7,75 176.7,41.7 		"/>
		<polygon class="st6" points="150,58.3 123.3,75 123.3,41.7 		"/>
		<polygon class="st6" points="176.7,41.7 176.7,75 150,58.3 		"/>
		<polygon class="st1" points="176.7,75 123.3,75 150,58.3 		"/>
	</g>
	<g>
		<path class="st7" d="M35.8,15h28.3c2.7,0,4.9,2.2,4.9,4.9v60.2c0,2.7-2.2,4.9-4.9,4.9H35.8c-2.7,0-4.9-2.2-4.9-4.9V19.9
			C31,17.2,33.1,15,35.8,15z"/>
		<rect x="45.8" y="78.3" class="st8" width="8.5" height="2.8"/>
		<rect x="33.7" y="25.6" class="st9" width="32.6" height="48.8"/>
		<circle class="st8" cx="50" cy="20.3" r="1.4"/>
		<rect x="33.7" y="25.6" class="st3" width="32.6" height="5.6"/>
		<rect x="33.7" y="31.2" class="st9" width="32.6" height="8.7"/>
		<rect x="33.7" y="39.8" class="st6" width="32.6" height="8.7"/>
		<rect x="33.7" y="48.5" class="st9" width="32.6" height="8.7"/>
		<rect x="33.7" y="57.1" class="st10" width="32.6" height="8.7"/>
		<rect x="33.7" y="65.8" class="st9" width="32.6" height="8.7"/>
		<rect x="60.7" y="25.6" class="st11" width="5.6" height="5.6"/>
		<rect x="33.7" y="31.2" class="st12" width="8.7" height="8.7"/>
		<rect x="33.7" y="39.8" class="st13" width="8.7" height="8.7"/>
		<rect x="33.7" y="48.5" class="st12" width="8.7" height="8.7"/>
		<rect x="33.7" y="57.1" class="st13" width="8.7" height="8.7"/>
		<rect x="33.7" y="65.8" class="st12" width="8.7" height="8.7"/>
		<path class="st14" d="M50,15H35.8c-2.7,0-4.9,2.2-4.9,4.9v60.2c0,2.7,2.2,4.9,4.9,4.9H50V15z"/>
	</g>
	<g>
		<path class="st15" d="M350,25c-13.8,0-25,11.2-25,25s11.2,25,25,25c13.8,0,25-11.2,25-25c0,0,0,0,0,0C375,36.2,363.8,25,350,25"/>
		<path class="st16" d="M356.7,49.6h-4.2v15.1h-6.3V49.6h-3v-5.3h3v-3.4c0-2.5,1.2-6.3,6.3-6.3h4.6v5.2h-3.3c-0.7,0-1.3,0.5-1.3,1.2
			c0,0.1,0,0.2,0,0.2v3.1h4.8L356.7,49.6z"/>
	</g>
	<g>
		<path class="st17" d="M450,25c-13.8,0-25,11.2-25,25s11.2,25,25,25s25-11.2,25-25S463.8,25,450,25"/>
		<path class="st16" d="M438.5,43.2h4.6c0.2,0,0.3,0.1,0.3,0.3v15c0,0.2-0.1,0.3-0.3,0.3h-4.6c-0.2,0-0.3-0.1-0.3-0.3v-15
			C438.2,43.4,438.4,43.2,438.5,43.2z"/>
		<path class="st16" d="M440.8,41.7c-1.4,0-2.6-1.2-2.6-2.6s1.2-2.6,2.6-2.6s2.6,1.2,2.6,2.6S442.3,41.7,440.8,41.7L440.8,41.7"/>
		<path class="st16" d="M461.5,48v10.6c0,0.2-0.1,0.3-0.3,0.3l0,0h-4.6c-0.2,0-0.3-0.1-0.3-0.3l0,0v-8.5c0-1.6-0.1-3-2.4-3
			c-1.3,0-2.4,1-2.5,2.2v9.2c0,0.2-0.1,0.3-0.3,0.3l0,0h-4.6c-0.2,0-0.3-0.1-0.3-0.3l0,0v-15c0-0.2,0.1-0.3,0.3-0.3l0,0h4.6
			c0.2,0,0.3,0.1,0.3,0.3l0,0V45c1.2-1.3,2.9-2,4.6-2c2.5-0.1,4.8,1.5,5.4,3.9C461.5,47.3,461.5,47.6,461.5,48"/>
	</g>
	<g>
		<path class="st16" d="M575,50c0,13.8-11.2,25-25,25c-13.8,0-25-11.2-25-25s11.2-25,25-25c0,0,0,0,0,0C563.8,25,575,36.2,575,50"/>
		<path class="st18" d="M550,26.9c-12.8,0-23.1,10.4-23.1,23.1c0,9.5,5.8,18,14.7,21.5c-0.3-2.2-0.3-4.4,0.1-6.6
			c0.4-1.8,2.7-11.5,2.7-11.5c-0.5-1.1-0.7-2.3-0.7-3.4c0-3.2,1.9-5.6,4.2-5.6c2,0,2.9,1.5,2.9,3.3c0,2-1.3,4.9-1.9,7.7
			c-0.5,1.8,0.5,3.6,2.3,4.1c0.4,0.1,0.7,0.1,1.1,0.1c4.1,0,7.3-4.3,7.3-10.6c0-5.5-4-9.4-9.7-9.4c-5.5-0.2-10.2,4-10.4,9.6
			c0,0.2,0,0.3,0,0.5c0,1.9,0.6,3.7,1.7,5.2c0.2,0.2,0.2,0.4,0.2,0.7c-0.2,0.7-0.6,2.3-0.6,2.6c-0.1,0.3-0.3,0.5-0.8,0.3
			c-2.9-1.3-4.7-5.5-4.7-9c0-7.3,5.3-14,15.3-14c8,0,14.2,5.7,14.2,13.4c0,8-5,14.3-12,14.3c-2.1,0.1-4.1-0.9-5.3-2.7L546,66
			c-0.7,2.1-1.7,4.2-2.9,6.1c12.2,3.9,25.2-2.8,29.1-15s-2.8-25.2-15-29.1C554.9,27.2,552.4,26.8,550,26.9"/>
	</g>
	<g>

			<radialGradient id="path4931_1_" cx="-1119.1479" cy="5781.4458" r="0.2656" gradientTransform="matrix(-0.87 147.32 -200.74 -1.18 1159828.75 171757.9219)" gradientUnits="userSpaceOnUse">
			<stop  offset="0" style="stop-color:#F9FAFB"/>
			<stop  offset="0.74" style="stop-color:#CFDADF"/>
			<stop  offset="1" style="stop-color:#F1F3F5"/>
		</radialGradient>
		<path id="path4931" class="st19" d="M250.4,26.7c-4.4,0.6-8.5,2.4-12,5.1l0,0c-3.6,2.7-6.1,6.6-7,11.1l0,0
			c-0.2,1.4-0.4,2.8-0.5,4.2l0,0c-0.4,5.8-1,9.3-5.7,9.3l0,0c-0.6,0-1.1,0.3-1.3,0.8h0c-0.3,0.5-0.2,1.1,0.1,1.6l0,0
			c6.4,8.5,17.4,9.5,25,9.5h2.5c3.6,0.2,7.3-0.3,10.8-1.4l0,0c6-2.2,10.7-6.9,12.9-12.8l0,0c2.1-6,1.1-12.7-2.6-17.9l0,0
			c-4.5-6-11.5-9.5-19-9.5l0,0C252.5,26.5,251.4,26.5,250.4,26.7"/>
		<path id="path4943" class="st20" d="M253.5,25c-1.1,0-2.2,0.1-3.3,0.2c-4.6,0.7-9,2.5-12.6,5.4c-3.9,2.9-6.6,7.2-7.6,11.9
			c-0.2,1.4-0.4,2.9-0.5,4.4c0,2.1-0.4,4.2-1.1,6.3c-0.5,1.1-1.2,1.8-3.3,1.8c-1.6,0-2.9,1.3-2.9,2.9c0,0.7,0.2,1.3,0.6,1.8
			c6.8,8.9,18.2,9.9,26.2,9.9h2.5c3.8,0.2,7.6-0.4,11.3-1.6c3.1-1.2,5.9-2.9,8.3-5.2c2.5-2.3,4.4-5.3,5.5-8.5
			c1.1-3.3,1.4-6.9,0.8-10.3c-0.5-3.2-1.8-6.2-3.8-8.8c-2.3-3.1-5.3-5.6-8.7-7.3C261.4,25.9,257.5,25,253.5,25 M253.5,27.9
			c13.1,0,24.8,11.7,20.3,25.4c-2.1,5.5-6.5,9.9-12,11.9c-3.3,1-6.8,1.5-10.3,1.3h-2.5c-7.5,0-17.9-0.9-23.9-8.9
			c8.2,0,6.6-9.2,7.7-14.6c1.6-8.3,9.8-13.9,17.8-15C251.6,28,252.6,27.9,253.5,27.9"/>
		<path id="path4955" class="st20" d="M245.3,68.7c0.3,3.2-2.1,6-5.3,6.3c-3.2,0.3-6-2.1-6.3-5.3s2.1-6,5.3-6.3c0,0,0,0,0.1,0
			C242.2,63.1,245,65.5,245.3,68.7"/>
		<path id="path4967" class="st21" d="M241.1,69.1c0.1,0.9-0.6,1.8-1.6,1.9c-1.1-0.1-1.9-1-1.8-2c0.1-0.9,0.8-1.7,1.7-1.8
			c0.9,0.1,1.6,0.9,1.6,1.9"/>
		<path id="path4979" class="st20" d="M265.3,68.7c0.3,3.2-2.1,6-5.3,6.3c-3.2,0.3-6-2.1-6.3-5.3s2.1-6,5.3-6.3c0,0,0,0,0.1,0
			C262.2,63.1,265,65.5,265.3,68.7"/>
		<path id="path4991" class="st21" d="M261.2,69.1c-0.1,0.9-1,1.5-1.9,1.4s-1.5-1-1.4-1.9c0.1-0.8,0.9-1.5,1.7-1.4
			C260.5,67.3,261.2,68.1,261.2,69.1"/>
		<path id="path5003" class="st20" d="M248.7,42.4c0,1.5-1.3,2.8-2.8,2.8s-2.8-1.3-2.8-2.8s1.3-2.8,2.8-2.8l0,0
			C247.4,39.6,248.7,40.8,248.7,42.4"/>
		<path id="path5015" class="st20" d="M262,42c0,1.5-1.3,2.8-2.8,2.8c-1.5,0-2.8-1.3-2.8-2.8s1.3-2.8,2.8-2.8l0,0
			C260.8,39.2,262,40.4,262,42L262,42"/>
		<path id="path5027" class="st20" d="M252.6,57.4c-2.4,0-4.7-0.8-6.5-2.2c-1.8-1.3-3-3.3-3.3-5.5c-0.1-0.8,0.5-1.6,1.3-1.6
			c0.8-0.1,1.6,0.5,1.6,1.3l0,0c0.4,3.1,4.1,5.2,7.2,5.1c4-0.1,6.6-2.5,7.1-4.8c0.2-0.8,1-1.3,1.8-1.1s1.3,1,1.1,1.8
			c-0.5,2-1.7,3.7-3.4,4.9c-1.9,1.4-4.2,2.1-6.5,2.1H252.6"/>
	</g>
	<g>

			<radialGradient id="SVGID_1_" cx="-364.9676" cy="6470.0044" r="0.1222" gradientTransform="matrix(140.1138 -408.3084 408.3084 140.1138 -2589996 -1055484.875)" gradientUnits="userSpaceOnUse">
			<stop  offset="0" style="stop-color:#FFD776"/>
			<stop  offset="0.25" style="stop-color:#F3A554"/>
			<stop  offset="0.38" style="stop-color:#F15C3C"/>
			<stop  offset="0.7" style="stop-color:#C32F87"/>
			<stop  offset="0.95" style="stop-color:#6765AE"/>
			<stop  offset="0.99" style="stop-color:#5C6CB3"/>
			<stop  offset="1" style="stop-color:#5C6CB3"/>
		</radialGradient>
		<path class="st22" d="M675,64.1C675,64.1,675,64,675,64.1V36c0-6-4.9-10.9-10.9-11c0,0,0,0,0,0h-28.3c-6,0-10.9,4.9-10.9,10.9
			c0,0,0,0,0,0V64c0,6,4.9,10.9,10.9,11c0,0,0,0,0,0h28.3C670.2,75,675.1,70.1,675,64.1z"/>
		<path class="st16" d="M657.5,69h-15c-6,0-10.9-4.9-10.9-10.9V42c0-6,4.9-10.9,10.9-10.9h15c6,0,10.9,4.9,10.9,10.9v16
			C668.5,64.1,663.6,69,657.5,69 M642.5,34.4c-4.2,0-7.7,3.4-7.7,7.7l0,0v16c0,4.2,3.4,7.7,7.7,7.7h15c4.2,0,7.7-3.4,7.7-7.7V42
			c0-4.2-3.4-7.7-7.7-7.7L642.5,34.4z"/>
		<path class="st16" d="M650,59.9c-5.5,0-9.9-4.4-9.9-9.9c0-2.7,1.1-5.3,3-7.2c1.8-1.8,4.3-2.8,6.9-2.7c2.8,0,5.4,1,7.4,3
			c1.7,1.9,2.6,4.4,2.5,6.9c0,2.6-1.1,5.1-2.9,7C655.1,58.8,652.6,59.9,650,59.9 M649.8,43.3c-1.6,0-3.2,0.6-4.4,1.8
			c-1.3,1.3-2,3-2,4.8c-0.4,3.7,2.2,7,5.9,7.4c3.7,0.4,7-2.2,7.4-5.9c0.1-0.5,0.1-1,0-1.5c0.1-4-2.4-6.5-6.7-6.6L649.8,43.3"/>
		<path class="st16" d="M662.5,39.8c0,1.3-1,2.3-2.3,2.3c-1.3,0-2.3-1-2.3-2.3c0-1.3,1-2.3,2.3-2.3l0,0
			C661.5,37.5,662.5,38.5,662.5,39.8"/>
	</g>
</g>
</svg>
