<svg xmlns="http://www.w3.org/2000/svg" viewBox="0 0 265.8 75.11"><defs><style>.cls-1{fill:#fff;}</style></defs><title>demo_logo</title><g id="Layer_2" data-name="Layer 2"><g id="Graphics"><path class="cls-1" d="M8.55,59.29H0L9.6,28.16.16,0H8.71l4.76,15,.24.73H14l.24-.73L19,0h8.55L18.15,28.16l9.6,31.14H19.2l-5-17.67L14,40.9h-.32l-.16.73Z"/><path class="cls-1" d="M41.87,19l.24.56h.16l.24-.56L46.87,0h8.55L46.54,34V59.29H37.83V34L29,0h8.55Z"/><path class="cls-1" d="M56.79,49.94,70.42,8.63H58.72V0H79.86V8.63L66,50.66H79.86v8.63H56.79Z"/><path class="cls-1" d="M96.31,59.29V0h6.86c8.07,0,12.42,1.61,14.76,6.13s2.58,11.94,2.58,23.56-.32,19-2.58,23.48-6.7,6.13-14.76,6.13ZM105,50.58c3,0,4.68-.32,5.57-3.23a25.88,25.88,0,0,0,.81-6.29c.08-2.82.08-6.62.08-11.46s0-8.63-.08-11.46a27.12,27.12,0,0,0-.81-6.29C109.71,9,108,8.71,105,8.71Z"/><path class="cls-1" d="M146.73,43.48v5.08c-.24,4.28-1.53,7.26-4.44,9.6a9.26,9.26,0,0,1-6.13,1.77,9.39,9.39,0,0,1-9.2-5.81,16.14,16.14,0,0,1-1.29-5.81V26.14c.24-4.28,1.61-7.42,4.52-9.84,1.37-1.21,3.39-1.77,6.05-1.77a9.44,9.44,0,0,1,9.2,5.73,15.74,15.74,0,0,1,1.29,5.65V38.72H133.26v9.6a6.23,6.23,0,0,0,1.29,3.79,2.31,2.31,0,0,0,1.69.65,2.55,2.55,0,0,0,2.58-2.18,6.36,6.36,0,0,0,.32-2.26V43.48ZM133.26,32.35h5.89V26.14A5.69,5.69,0,0,0,138,22.27a2.51,2.51,0,0,0-1.78-.65c-1.53,0-2.18,1-2.58,2.26a8.68,8.68,0,0,0-.4,2.26Z"/><path class="cls-1" d="M164.32,26.46a12,12,0,0,0-.32-3.39,2.44,2.44,0,0,0-2.34-1.77,2.22,2.22,0,0,0-2,1.77,9.56,9.56,0,0,0-.48,3.39,6.89,6.89,0,0,0,1.78,4.11,30.82,30.82,0,0,0,3.55,3.79,35.39,35.39,0,0,1,5.08,5.81A14.6,14.6,0,0,1,172,47.84a14,14,0,0,1-2.26,8.07,9.52,9.52,0,0,1-8.15,4c-4.92,0-7.82-2.26-9.44-5a17.16,17.16,0,0,1-1.94-8.47h7.58a11.1,11.1,0,0,0,.64,4.2c.56,1.37,1.45,2.5,3.15,2.5,2.34,0,2.82-2.74,2.82-5.32s-2.58-5.32-5.08-7.83a35,35,0,0,1-5.24-5.73,13.49,13.49,0,0,1-2.5-7.83,14.65,14.65,0,0,1,2-7.91,9.24,9.24,0,0,1,7.91-4c4.76-.08,7.42,1.69,8.79,4s1.61,5.4,1.61,7.91Z"/><path class="cls-1" d="M176.82,0H185V8.15h-8.15Zm0,59.29V15.17H185V59.29Z"/><path class="cls-1" d="M211.35,38c-.24,4.11-1.7,7-4.52,9.2a9.55,9.55,0,0,1-6,1.69h-.73a2.75,2.75,0,0,1-.81-.08,2.76,2.76,0,0,0-1.13,2c0,1,.81,1.53,2,1.86a27.21,27.21,0,0,0,4.19.89,17.23,17.23,0,0,1,7.58,2.5c2.18,1.53,3.71,3.87,3.71,7.74a10.06,10.06,0,0,1-4.44,8.87,18.19,18.19,0,0,1-9.52,2.42c-3.87-.08-7.18-.65-9.44-1.94s-3.63-3.39-3.63-6.62a5.43,5.43,0,0,1,2-4,17.27,17.27,0,0,1,4.36-2.74c-2.66-.73-4.92-2.42-4.92-5.89a6.42,6.42,0,0,1,1.69-3.79,11.11,11.11,0,0,1,3.39-2.82,10.22,10.22,0,0,1-4-6,18.9,18.9,0,0,1-.65-3.63v-12c.32-4.11,1.61-7.1,4.44-9.44a8.71,8.71,0,0,1,5.89-1.77,9.38,9.38,0,0,1,8.15,4,19.79,19.79,0,0,1,2.82-2.42,7,7,0,0,1,3.87-1.61v7.26a9.78,9.78,0,0,0-4.76,1,10.53,10.53,0,0,0,.24,1,3,3,0,0,0,.08.89,2.7,2.7,0,0,1,.08.81ZM199.57,61.31c-1.69,1-3,2.18-3,3.87s1.53,3.07,5.32,3.07a11.62,11.62,0,0,0,4.12-.73c1.21-.48,2.1-1.21,2.1-2.26a2.31,2.31,0,0,0-.65-1.86,7.31,7.31,0,0,0-3.71-1.29Zm3.79-35.25a5.3,5.3,0,0,0-1-3.39,1.83,1.83,0,0,0-1.53-.65,2.33,2.33,0,0,0-2.18,2,5.4,5.4,0,0,0-.16,2v12.1a4.18,4.18,0,0,0,.89,3.31,1.77,1.77,0,0,0,1.45.65,2.35,2.35,0,0,0,2.26-1.94,7.73,7.73,0,0,0,.24-2Z"/><path class="cls-1" d="M227.16,59.29H219V15.17h8.15v3.71a6.62,6.62,0,0,0,1-.89,16.71,16.71,0,0,1,3.55-2.9,4.11,4.11,0,0,1,2.1-.56,5.41,5.41,0,0,1,4.68,2.9,12.07,12.07,0,0,1,1.45,5.73V59.29h-8.15V24.36c0-1.69-1-1.94-1.94-1.94a2.61,2.61,0,0,0-1.94,1,11.82,11.82,0,0,0-.73,1Z"/><path class="cls-1" d="M258.13,26.46a12.1,12.1,0,0,0-.32-3.39,2.44,2.44,0,0,0-2.34-1.77,2.22,2.22,0,0,0-2,1.77,9.6,9.6,0,0,0-.48,3.39,6.89,6.89,0,0,0,1.77,4.11,31,31,0,0,0,3.55,3.79,35.48,35.48,0,0,1,5.08,5.81,14.61,14.61,0,0,1,2.42,7.66,14,14,0,0,1-2.26,8.07,9.52,9.52,0,0,1-8.15,4c-4.92,0-7.83-2.26-9.44-5A17.18,17.18,0,0,1,244,46.47h7.58a11.1,11.1,0,0,0,.65,4.2c.56,1.37,1.45,2.5,3.15,2.5,2.34,0,2.82-2.74,2.82-5.32s-2.58-5.32-5.08-7.83a35.14,35.14,0,0,1-5.24-5.73,13.51,13.51,0,0,1-2.5-7.83,14.65,14.65,0,0,1,2-7.91,9.24,9.24,0,0,1,7.9-4c4.76-.08,7.42,1.69,8.79,4s1.61,5.4,1.61,7.91Z"/></g></g></svg>