<svg version="1.1" id="Layer_1" xmlns="http://www.w3.org/2000/svg" xmlns:xlink="http://www.w3.org/1999/xlink" x="0px" y="0px"
	 viewBox="0 0 112.1 80.8" style="enable-background:new 0 0 112.1 80.8;" xml:space="preserve">
<g>
	<g>
		<polygon points="46.8,46.3 34.6,28.1 38.7,22 31.7,10.3 26.8,17.9 15.8,0 0,0 18.7,28.1 0,56.2 15.1,56.2 26.5,38.3 37.6,56.2
			46.8,56.2 46.8,56.2 		"/>
		<polygon points="112.1,0 88.6,0 87.4,2 82.4,10.4 94.9,10.4 67.1,43.7 67.1,56.2 67.1,56.2 112.1,56.2 112.1,45.8 82,45.8
			112.1,9.8 		"/>
		<polygon points="63.1,56.2 63.1,34.6 84,0 70.2,0 57.1,22.2 44,0 30.1,0 50.8,34.3 50.8,56.2 		"/>
	</g>
	<g>
		<path d="M7.9,62.2c1.2,0,2.3,0.2,3.3,0.6c1,0.4,1.9,0.9,2.6,1.7c0.7,0.7,1.3,1.7,1.7,2.8c0.4,1.1,0.6,2.4,0.6,4
			c0,1.3-0.2,2.6-0.5,3.7c-0.3,1.1-0.9,2.1-1.5,2.9c-0.7,0.8-1.6,1.5-2.6,1.9c-1,0.5-2.2,0.7-3.6,0.7H0V62.2H7.9z M7.6,77.1
			c0.6,0,1.1-0.1,1.7-0.3c0.5-0.2,1-0.5,1.5-0.9c0.4-0.4,0.8-1,1-1.7c0.3-0.7,0.4-1.5,0.4-2.6c0-0.9-0.1-1.8-0.3-2.5
			c-0.2-0.7-0.5-1.4-0.9-1.9c-0.4-0.5-0.9-0.9-1.6-1.2c-0.7-0.3-1.5-0.4-2.5-0.4H4v11.5H7.6z"/>
		<path d="M32.6,62.2v3.4h-9.6v3.9h8.8v3.1h-8.8v4.5h9.8v3.4H18.9V62.2H32.6z"/>
		<path d="M38.6,75.9c0.2,0.4,0.5,0.8,0.9,1c0.4,0.3,0.8,0.5,1.3,0.6c0.5,0.1,1,0.2,1.5,0.2c0.4,0,0.7,0,1.1-0.1
			c0.4-0.1,0.8-0.2,1.1-0.3c0.4-0.2,0.7-0.4,0.9-0.7c0.2-0.3,0.4-0.7,0.4-1.1c0-0.5-0.2-0.9-0.5-1.2c-0.3-0.3-0.7-0.6-1.2-0.8
			c-0.5-0.2-1.1-0.4-1.7-0.5c-0.6-0.2-1.3-0.3-2-0.5c-0.7-0.2-1.3-0.4-2-0.6c-0.6-0.2-1.2-0.6-1.7-1c-0.5-0.4-0.9-0.9-1.2-1.5
			c-0.3-0.6-0.5-1.3-0.5-2.1c0-0.9,0.2-1.8,0.6-2.4c0.4-0.7,0.9-1.3,1.6-1.7c0.6-0.5,1.4-0.8,2.2-1c0.8-0.2,1.6-0.3,2.5-0.3
			c1,0,1.9,0.1,2.7,0.3c0.9,0.2,1.7,0.6,2.3,1c0.7,0.5,1.2,1.1,1.6,1.8c0.4,0.7,0.6,1.6,0.6,2.7h-3.9c0-0.5-0.1-1-0.3-1.4
			c-0.2-0.4-0.5-0.6-0.8-0.8c-0.3-0.2-0.7-0.3-1.1-0.4c-0.4-0.1-0.9-0.1-1.4-0.1c-0.3,0-0.6,0-1,0.1c-0.3,0.1-0.6,0.2-0.9,0.4
			c-0.3,0.2-0.5,0.4-0.7,0.6c-0.2,0.3-0.3,0.6-0.3,1c0,0.4,0.1,0.6,0.2,0.9c0.1,0.2,0.4,0.4,0.8,0.6c0.4,0.2,1,0.4,1.7,0.6
			c0.7,0.2,1.6,0.4,2.8,0.7c0.3,0.1,0.8,0.2,1.4,0.4c0.6,0.2,1.2,0.5,1.8,0.9c0.6,0.4,1.1,0.9,1.5,1.6c0.4,0.7,0.7,1.5,0.7,2.5
			c0,0.8-0.2,1.6-0.5,2.3c-0.3,0.7-0.8,1.3-1.4,1.9c-0.6,0.5-1.4,0.9-2.4,1.2c-0.9,0.3-2,0.4-3.3,0.4c-1,0-2-0.1-2.9-0.4
			c-0.9-0.2-1.8-0.6-2.5-1.2c-0.7-0.5-1.3-1.2-1.7-2c-0.4-0.8-0.6-1.8-0.6-2.9h3.9C38.2,75,38.3,75.5,38.6,75.9z"/>
		<path d="M56.1,62.2v18.2h-4V62.2H56.1z"/>
		<path d="M70.4,80.3c-0.9,0.4-1.7,0.5-2.6,0.5c-1.4,0-2.7-0.2-3.8-0.7c-1.1-0.5-2.1-1.2-2.8-2c-0.8-0.9-1.4-1.9-1.8-3
			c-0.4-1.1-0.6-2.4-0.6-3.7c0-1.4,0.2-2.6,0.6-3.8c0.4-1.2,1-2.2,1.8-3.1c0.8-0.9,1.7-1.5,2.8-2c1.1-0.5,2.4-0.7,3.8-0.7
			c0.9,0,1.8,0.1,2.7,0.4c0.9,0.3,1.7,0.7,2.4,1.2c0.7,0.5,1.3,1.2,1.8,2c0.5,0.8,0.7,1.7,0.8,2.8h-3.8c-0.2-1-0.7-1.8-1.4-2.3
			c-0.7-0.5-1.5-0.8-2.5-0.8c-0.9,0-1.7,0.2-2.3,0.5C64.9,66,64.3,66.5,64,67c-0.4,0.6-0.7,1.3-0.9,2c-0.2,0.7-0.3,1.5-0.3,2.3
			c0,0.8,0.1,1.5,0.3,2.2c0.2,0.7,0.5,1.4,0.9,2c0.4,0.6,0.9,1,1.5,1.4c0.6,0.3,1.4,0.5,2.3,0.5c1.3,0,2.4-0.3,3.1-1
			c0.7-0.7,1.1-1.6,1.3-2.9h-4v-3h7.7v9.9h-2.6l-0.4-2.1C72.1,79.3,71.3,79.9,70.4,80.3z"/>
		<path d="M83,62.2l7.6,12.2h0.1V62.2h3.8v18.2h-4l-7.6-12.2h-0.1v12.2H79V62.2H83z"/>
		<path d="M101,75.9c0.2,0.4,0.5,0.8,0.9,1c0.4,0.3,0.8,0.5,1.3,0.6c0.5,0.1,1,0.2,1.5,0.2c0.4,0,0.7,0,1.1-0.1
			c0.4-0.1,0.8-0.2,1.1-0.3c0.4-0.2,0.7-0.4,0.9-0.7c0.2-0.3,0.4-0.7,0.4-1.1c0-0.5-0.2-0.9-0.5-1.2c-0.3-0.3-0.7-0.6-1.2-0.8
			c-0.5-0.2-1.1-0.4-1.7-0.5c-0.6-0.2-1.3-0.3-2-0.5c-0.7-0.2-1.3-0.4-2-0.6c-0.6-0.2-1.2-0.6-1.7-1c-0.5-0.4-0.9-0.9-1.2-1.5
			c-0.3-0.6-0.5-1.3-0.5-2.1c0-0.9,0.2-1.8,0.6-2.4c0.4-0.7,0.9-1.3,1.6-1.7c0.6-0.5,1.4-0.8,2.2-1c0.8-0.2,1.6-0.3,2.5-0.3
			c1,0,1.9,0.1,2.7,0.3c0.9,0.2,1.7,0.6,2.3,1c0.7,0.5,1.2,1.1,1.6,1.8c0.4,0.7,0.6,1.6,0.6,2.7h-3.9c0-0.5-0.1-1-0.3-1.4
			c-0.2-0.4-0.5-0.6-0.8-0.8c-0.3-0.2-0.7-0.3-1.1-0.4c-0.4-0.1-0.9-0.1-1.4-0.1c-0.3,0-0.6,0-1,0.1c-0.3,0.1-0.6,0.2-0.9,0.4
			c-0.3,0.2-0.5,0.4-0.7,0.6c-0.2,0.3-0.3,0.6-0.3,1c0,0.4,0.1,0.6,0.2,0.9c0.1,0.2,0.4,0.4,0.8,0.6c0.4,0.2,1,0.4,1.7,0.6
			c0.7,0.2,1.6,0.4,2.8,0.7c0.3,0.1,0.8,0.2,1.4,0.4c0.6,0.2,1.2,0.5,1.8,0.9c0.6,0.4,1.1,0.9,1.5,1.6c0.4,0.7,0.7,1.5,0.7,2.5
			c0,0.8-0.2,1.6-0.5,2.3c-0.3,0.7-0.8,1.3-1.4,1.9c-0.6,0.5-1.4,0.9-2.4,1.2c-0.9,0.3-2,0.4-3.3,0.4c-1,0-2-0.1-2.9-0.4
			c-0.9-0.2-1.8-0.6-2.5-1.2c-0.7-0.5-1.3-1.2-1.7-2c-0.4-0.8-0.6-1.8-0.6-2.9h3.9C100.7,75,100.8,75.5,101,75.9z"/>
	</g>
</g>
</svg>
