<svg style="position: absolute; width: 0; height: 0; overflow: hidden;" version="1.1" xmlns="http://www.w3.org/2000/svg" xmlns:xlink="http://www.w3.org/1999/xlink">
<defs>
<symbol id="icon-architect" viewBox="0 0 35 32">
<title>architect</title>
<path class="path1" fill="#ad5043" d="M2.501 3.2c-0.265-0.264-0.631-0.427-1.035-0.427-0.81 0-1.467 0.657-1.467 1.467 0 0.010 0 0.019 0 0.029l-0 26.292c0.015 0.798 0.666 1.44 1.466 1.44 0 0 0 0 0 0h26.267c0.008 0 0.018 0 0.027 0 0.81 0 1.467-0.657 1.467-1.467 0-0.404-0.163-0.77-0.427-1.035zM2.933 29.067v-21.285l21.285 21.285z"></path>
<path class="path2" fill="#ad5043" d="M7.008 25.632h7.045c0.007 0 0.015 0 0.023 0 0.404 0 0.731-0.327 0.731-0.731 0-0.205-0.084-0.39-0.22-0.523l-7.061-7.045c-0.133-0.136-0.318-0.22-0.523-0.22-0.404 0-0.731 0.327-0.731 0.731 0 0.008 0 0.016 0 0.024l-0 7.034c0 0 0 0 0 0 0 0.404 0.327 0.731 0.731 0.731 0.002 0 0.004 0 0.006-0zM7.739 19.621l4.528 4.544h-4.528z"></path>
<path class="path3" fill="#ad5043" d="M35.2 25.136c-0.047-0.365-0.356-0.645-0.73-0.645-0.030 0-0.060 0.002-0.089 0.005l-0.556 0.037-3.813-8.533c1.543-1.31 2.518-3.25 2.523-5.418q0-0.225 0-0.444c-0.025-0.384-0.342-0.687-0.731-0.687-0.404 0-0.732 0.328-0.732 0.732 0 0.016 0 0.032 0.002 0.047q-0 0.174-0 0.355c0 0.001 0 0.003 0 0.004 0 1.572-0.643 2.993-1.679 4.016l-3.793-8.543 2.021-0.139c0.382-0.027 0.682-0.344 0.682-0.731 0-0.404-0.328-0.732-0.732-0.732-0.018 0-0.035 0.001-0.053 0.002l-2.195 0.155-0.395-3.952c-0.037-0.374-0.35-0.665-0.731-0.665-0.405 0-0.734 0.329-0.734 0.734 0 0.024 0.001 0.049 0.004 0.072l0.389 3.906-2.272 0.16c-0.395 0.013-0.71 0.337-0.71 0.733 0 0.405 0.328 0.734 0.734 0.734 0.008 0 0.017-0 0.025-0l0.052 0 2.037-0.144-3.077 12.976c-0.012 0.050-0.019 0.108-0.019 0.168 0 0.405 0.329 0.734 0.734 0.734 0.346 0 0.636-0.239 0.714-0.561l0.534-2.368c0.824 0.361 1.784 0.571 2.793 0.571 1.246 0 2.417-0.32 3.436-0.883l3.883 8.813c0.117 0.257 0.371 0.432 0.667 0.432h0.085l1.099-0.128c0.36-0.049 0.635-0.355 0.635-0.724 0-0.032-0.002-0.064-0.006-0.095zM25.397 16.24c-0.008 0-0.018 0-0.028 0-0.871 0-1.696-0.197-2.433-0.548l1.863-7.767 3.381 7.579c-0.799 0.463-1.758 0.736-2.781 0.736-0.001 0-0.002 0-0.003 0z"></path>
<path class="path4" fill="#ad5043" d="M34.603 27.445c-0.054-0.356-0.358-0.626-0.725-0.626-0.405 0-0.733 0.328-0.733 0.733 0 0.038 0.003 0.075 0.008 0.111l0.090 0.604c0.054 0.355 0.357 0.624 0.723 0.624 0.001 0 0.002 0 0.003 0h0.107c0.347-0.061 0.606-0.36 0.606-0.72 0-0.051-0.005-0.101-0.015-0.149z"></path>
</symbol>
<symbol id="icon-cnc" viewBox="0 0 29 32">
<title>cnc</title>
<path class="path1" fill="#ad5043" d="M11.275 15.68c-2.665 1.25-4.477 3.909-4.48 6.992l1.435 0c0-0 0-0.001 0-0.002 0-2.334 1.276-4.37 3.169-5.449z"></path>
<path class="path2" fill="#ad5043" d="M22.192 22.672c-0.004-3.084-1.819-5.744-4.438-6.972l-0.213 1.5c1.924 1.095 3.2 3.131 3.2 5.465 0 0.001 0 0.001 0 0.002z"></path>
<path class="path3" fill="#ad5043" d="M11.829 20.688l-0.197-1.813c-1.155 0.876-1.893 2.25-1.893 3.796 0 0 0 0.001 0 0.001l1.435-0c0-0.002 0-0.005 0-0.007 0-0.745 0.246-1.432 0.662-1.985z"></path>
<path class="path4" fill="#ad5043" d="M19.248 22.672c0-0 0-0.001 0-0.001 0-1.546-0.738-2.92-1.882-3.787l-0.209 1.805c0.413 0.546 0.661 1.236 0.661 1.984z"></path>
<path class="path5" fill="#ad5043" d="M0 24.085v4.613c0 0.002 0 0.003 0 0.005 0 1.82 1.476 3.296 3.296 3.296 0 0 0 0 0 0h22.4c1.819-0.003 3.293-1.477 3.296-3.296v-4.619zM1.435 25.52h2.299l-2.299 2.32zM3.301 30.565c-0.001 0-0.001 0-0.002 0-0.624 0-1.176-0.307-1.514-0.778l4.263-4.272h2.347l-5.056 5.051zM5.627 30.565l5.040-5.045h2.347l-5.045 5.045zM10.256 30.565l5.045-5.045h2.347l-5.045 5.045zM14.885 30.565l5.045-5.045h2.347l-5.051 5.045zM19.515 30.565l5.019-5.045h2.347l-5.013 5.045zM27.552 28.699c0 1.031-0.836 1.867-1.867 1.867h-1.547l3.408-3.408z"></path>
<path class="path6" fill="#ad5043" d="M18.192 9.067h1.451l2.107-2.107v-1.451h-14.517v1.451l2.107 2.107h1.451v1.435h7.403zM16.171 8.379h-3.371v-1.445h3.36z"></path>
<path class="path7" fill="#ad5043" d="M15.493 22.672l1.387-12.565h-4.773l1.381 12.565h2.005z"></path>
<path class="path8" fill="#ad5043" d="M7.232 4.075h14.517v-1.435h1.552v-1.077l-1.563-1.563h-4.288l-1.323 1.323h-3.275l-1.317-1.323h-4.288l-1.563 1.563v1.077h1.547v1.435z"></path>
</symbol>
<symbol id="icon-house" viewBox="0 0 32 32">
<title>house</title>
<path class="path1" fill="#ad5043" d="M27.883 18.96l-11.2-11.2c-0.184-0.183-0.438-0.295-0.717-0.295s-0.533 0.113-0.717 0.295l-11.2 11.2c-0.395 0.395-0.731 0.757-0.779 0.8-0.050 0.256-0.078 0.552-0.078 0.853 0 0.1 0.003 0.198 0.009 0.296l-0.001 10.024c-0.001 0.018-0.002 0.039-0.002 0.060 0 0.54 0.425 0.982 0.959 1.007l6.509 0c0.555-0.020 0.998-0.476 0.998-1.034 0-0.011-0-0.023-0.001-0.034l0-8.894c0.017-0.523 0.445-0.94 0.97-0.94 0.021 0 0.041 0.001 0.062 0.002l6.541-0c0.018-0.001 0.038-0.002 0.059-0.002 0.525 0 0.953 0.418 0.97 0.939l0 8.898c-0 0.010-0 0.021-0 0.033 0 0.558 0.442 1.014 0.996 1.034l6.53 0c0.539-0.023 0.967-0.465 0.967-1.007 0-0.021-0.001-0.042-0.002-0.062l0-10.034c0.006-0.081 0.009-0.175 0.009-0.27 0-0.299-0.032-0.591-0.094-0.872-0.048-0.021-0.406-0.4-0.79-0.794zM22.613 4.080l3.547 3.6c0.395 0.395 0.667 0.261 0.667-0.299v-5.648c0.001-0.017 0.002-0.037 0.002-0.057 0-0.528-0.404-0.962-0.92-1.009l-3.007-0c-0.715 0-0.992 0.283-0.992 1.067v0.613c0 1.067 0.032 1.067 0.704 1.733zM31.749 15.381l-15.056-15.088c-0.184-0.183-0.438-0.295-0.717-0.295s-0.533 0.113-0.717 0.295l-14.965 14.965c-0.183 0.184-0.295 0.438-0.295 0.717s0.113 0.533 0.295 0.717l1.237 1.237c0.184 0.183 0.438 0.295 0.717 0.295s0.533-0.113 0.717-0.295l12.293-12.299c0.184-0.183 0.438-0.295 0.717-0.295s0.533 0.113 0.717 0.295l12.389 12.416c0.184 0.183 0.438 0.295 0.717 0.295s0.533-0.113 0.717-0.295l1.232-1.232c0.183-0.184 0.295-0.438 0.295-0.717s-0.113-0.533-0.295-0.717z"></path>
</symbol>
<symbol id="icon-question" viewBox="0 0 32 32">
<title>question</title>
<path class="path1" fill="#ad5043" d="M16 0c-8.837 0-16 7.163-16 16s7.163 16 16 16c8.837 0 16-7.163 16-16s-7.163-16-16-16zM15.749 26.421c-1.499 0-2.715-1.215-2.715-2.715s1.215-2.715 2.715-2.715c1.499 0 2.715 1.215 2.715 2.715s-1.215 2.715-2.715 2.715zM18.144 18.421v1.515h-4.667v-2.219c0-2.533 3.989-3.968 3.989-5.483-0.055-0.957-0.845-1.713-1.811-1.713-0.016 0-0.032 0-0.048 0.001-1.064-0-1.96 0.939-2.814 2.043l-2.928-2.715c1.755-2.229 3.787-3.621 6.293-3.621 3.333 0 5.968 2.347 5.968 6.069 0 3.573-3.995 4.453-3.995 6.107z"></path>
</symbol>
<symbol id="icon-time" viewBox="0 0 19 32">
<title>time</title>
<path class="path1" fill="#ad5043" d="M11.296 16.901c3.821 0.812 6.645 4.157 6.645 8.163 0 0.001 0 0.002 0 0.003 0 0.075 0 0.155 0 0.24v4.267h0.768v-4.267c0-0.085 0-0.176 0-0.261-0.009-4.367-3.092-8.011-7.199-8.885-0.129-0.024-0.181-0.085-0.181-0.157s0.052-0.133 0.12-0.146c4.174-0.887 7.26-4.54 7.26-8.915 0-0.003 0-0.005 0-0.008v0-4.528h-0.768v4.528c0 0.002 0 0.005 0 0.008 0 4.005-2.825 7.351-6.591 8.153-0.476 0.098-0.788 0.467-0.788 0.908s0.312 0.81 0.727 0.898z"></path>
<path class="path2" fill="#ad5043" d="M7.765 16.149c-4.173 0.886-7.259 4.54-7.259 8.915 0 0.001 0 0.002 0 0.002v-0 4.528h0.763v-4.528c0-0 0-0.001 0-0.001 0-4.007 2.827-7.354 6.596-8.154 0.476-0.098 0.788-0.467 0.788-0.908s-0.312-0.81-0.727-0.898c-3.829-0.811-6.657-4.158-6.657-8.165 0-0.002 0-0.005 0-0.007v-4.528h-0.763v4.528c0 0.002 0 0.005 0 0.008 0 4.375 3.086 8.029 7.199 8.904 0.129 0.024 0.181 0.085 0.181 0.157s-0.052 0.133-0.12 0.146z"></path>
<path class="path3" fill="#ad5043" d="M19.216 0h-19.216l0.512 1.776h18.192l0.512-1.776z"></path>
<path class="path4" fill="#ad5043" d="M17.173 29.605v-0.656s0-0.037 0-0.059c-0.023-0.307-0.183-0.573-0.418-0.739l-0.152-0.109c-1.483-0.978-3.259-1.637-5.171-1.836-0.645-0.078-1.137-0.453-1.374-0.97-0.163-0.357-0.255-0.762-0.255-1.188 0-0.002 0-0.005 0-0.007v-8s0-0.043 0-0.059c-0-0.003-0-0.007-0-0.011 0-0.807 0.572-1.48 1.333-1.636 1.76-0.372 3.25-1.302 4.321-2.592 0.214-0.259 0.411-0.532 0.589-0.818 0.048-0.081 0.066-0.14 0.066-0.204 0-0.186-0.15-0.336-0.336-0.336-0.038 0-0.074 0.006-0.108 0.018-1.794 0.621-3.864 0.981-6.018 0.981-0.017 0-0.035-0-0.052-0s-0.043 0-0.068 0c-2.136 0-4.19-0.353-6.106-1.005 0.102 0.029 0.065 0.022 0.028 0.022-0.186 0-0.336 0.15-0.336 0.336 0 0.063 0.018 0.123 0.048 0.173 0.197 0.309 0.396 0.577 0.611 0.831 1.069 1.29 2.555 2.22 4.251 2.583 0.809 0.164 1.376 0.818 1.394 1.607l0 0.002v8.112c0 0.002 0 0.004 0 0.007 0 0.426-0.092 0.831-0.258 1.196-0.234 0.509-0.726 0.885-1.312 0.957-1.977 0.203-3.759 0.864-5.29 1.873l-0.089 0.069c-0.198 0.137-0.342 0.339-0.404 0.574-0.006 0.041-0.008 0.080-0.008 0.119s0.002 0.078 0.007 0.117l-0 0.651z"></path>
<path class="path5" fill="#ad5043" d="M18.704 30.224h-18.192l-0.512 1.776h19.216l-0.512-1.776z"></path>
</symbol>
<symbol id="icon-warehouse" viewBox="0 0 39 32">
<title>warehouse</title>
<path class="path1" fill="#ad5043" d="M0.208 32h5.248c0.115 0 0.208-0.093 0.208-0.208v-16.101l13.648-8.955 13.643 8.955v16.101c0 0.115 0.093 0.208 0.208 0.208h5.237c0.115 0 0.208-0.093 0.208-0.208v-19.051c0-0 0-0 0-0.001 0-0.073-0.038-0.138-0.095-0.175l-19.089-12.534c-0.032-0.022-0.072-0.034-0.115-0.034s-0.082 0.013-0.115 0.035l-19.098 12.533c-0.058 0.038-0.096 0.102-0.096 0.175 0 0 0 0.001 0 0.001v19.051c0 0.115 0.093 0.208 0.208 0.208z"></path>
<path class="path2" fill="#ad5043" d="M7.765 25.648h5.936c0.115 0 0.208 0.093 0.208 0.208v5.936c0 0.115-0.093 0.208-0.208 0.208h-5.936c-0.115 0-0.208-0.093-0.208-0.208v-5.936c0-0.115 0.093-0.208 0.208-0.208z"></path>
<path class="path3" fill="#ad5043" d="M16.347 25.648h5.936c0.115 0 0.208 0.093 0.208 0.208v5.936c0 0.115-0.093 0.208-0.208 0.208h-5.936c-0.115 0-0.208-0.093-0.208-0.208v-5.936c0-0.115 0.093-0.208 0.208-0.208z"></path>
<path class="path4" fill="#ad5043" d="M24.923 25.648h5.936c0.115 0 0.208 0.093 0.208 0.208v5.936c0 0.115-0.093 0.208-0.208 0.208h-5.936c-0.115 0-0.208-0.093-0.208-0.208v-5.936c0-0.115 0.093-0.208 0.208-0.208z"></path>
<path class="path5" fill="#ad5043" d="M7.765 17.883h5.936c0.115 0 0.208 0.093 0.208 0.208v5.936c0 0.115-0.093 0.208-0.208 0.208h-5.936c-0.115 0-0.208-0.093-0.208-0.208v-5.936c0-0.115 0.093-0.208 0.208-0.208z"></path>
<path class="path6" fill="#ad5043" d="M16.347 17.883h5.936c0.115 0 0.208 0.093 0.208 0.208v5.936c0 0.115-0.093 0.208-0.208 0.208h-5.936c-0.115 0-0.208-0.093-0.208-0.208v-5.936c0-0.115 0.093-0.208 0.208-0.208z"></path>
</symbol>
</defs>
</svg>
